<svg width="1741px" height="332px"
 viewBox="0.00 0.00 1740.89 332.00" xmlns="http://www.w3.org/2000/svg" xmlns:xlink="http://www.w3.org/1999/xlink">
<g id="graph0" class="graph" transform="scale(1.0 1.0) rotate(0.0) translate(4.0 328.0)">
<polygon fill="white" stroke="none" points="-4,4 -4,-328 1736.89,-328 1736.89,4 -4,4"/>
<!-- 1: Barrie Dunsford -->
<g id="node1" class="node">
<title>1: Barrie Dunsford</title>
<ellipse fill="none" stroke="red" cx="1006.64" cy="-306" rx="81.04" ry="18"/>
<text text-anchor="middle" x="1006.64" y="-300.95" font-family="Times,serif" font-size="14.00">1: Barrie Dunsford</text>
</g>
<!-- 17: Barrie O&#39;Hannen -->
<g id="node2" class="node">
<title>17: Barrie O&#39;Hannen</title>
<ellipse fill="none" stroke="red" cx="833.64" cy="-234" rx="87.69" ry="18"/>
<text text-anchor="middle" x="833.64" y="-228.95" font-family="Times,serif" font-size="14.00">17: Barrie O&#39;Hannen</text>
</g>
<!-- 1: Barrie Dunsford&#45;&gt;17: Barrie O&#39;Hannen -->
<g id="edge1" class="edge">
<title>1: Barrie Dunsford&#45;&gt;17: Barrie O&#39;Hannen</title>
<path fill="none" stroke="black" d="M968.68,-289.64C943.39,-279.41 909.92,-265.86 882.63,-254.82"/>
<polygon fill="black" stroke="black" points="884.1,-251.64 873.52,-251.14 881.48,-258.13 884.1,-251.64"/>
</g>
<!-- 12: Correy O&#39;Hannen -->
<g id="node3" class="node">
<title>12: Correy O&#39;Hannen</title>
<ellipse fill="none" stroke="red" cx="1186.64" cy="-234" rx="90.25" ry="18"/>
<text text-anchor="middle" x="1186.64" y="-228.95" font-family="Times,serif" font-size="14.00">12: Correy O&#39;Hannen</text>
</g>
<!-- 1: Barrie Dunsford&#45;&gt;12: Correy O&#39;Hannen -->
<g id="edge2" class="edge">
<title>1: Barrie Dunsford&#45;&gt;12: Correy O&#39;Hannen</title>
<path fill="none" stroke="black" d="M1045.7,-289.81C1072.2,-279.51 1107.48,-265.79 1136.11,-254.65"/>
<polygon fill="black" stroke="black" points="1137.27,-257.96 1145.32,-251.07 1134.73,-251.43 1137.27,-257.96"/>
</g>
<!-- 5: Barrie Sharpless -->
<g id="node4" class="node">
<title>5: Barrie Sharpless</title>
<ellipse fill="none" stroke="red" cx="534.64" cy="-162" rx="81.55" ry="18"/>
<text text-anchor="middle" x="534.64" y="-156.95" font-family="Times,serif" font-size="14.00">5: Barrie Sharpless</text>
</g>
<!-- 17: Barrie O&#39;Hannen&#45;&gt;5: Barrie Sharpless -->
<g id="edge3" class="edge">
<title>17: Barrie O&#39;Hannen&#45;&gt;5: Barrie Sharpless</title>
<path fill="none" stroke="black" d="M777.4,-219.83C727.02,-208.04 653.12,-190.74 600.1,-178.32"/>
<polygon fill="black" stroke="black" points="601.13,-174.97 590.59,-176.1 599.53,-181.79 601.13,-174.97"/>
</g>
<!-- 11: Correy Tidder -->
<g id="node5" class="node">
<title>11: Correy Tidder</title>
<ellipse fill="none" stroke="red" cx="833.64" cy="-162" rx="77.45" ry="18"/>
<text text-anchor="middle" x="833.64" y="-156.95" font-family="Times,serif" font-size="14.00">11: Correy Tidder</text>
</g>
<!-- 17: Barrie O&#39;Hannen&#45;&gt;11: Correy Tidder -->
<g id="edge4" class="edge">
<title>17: Barrie O&#39;Hannen&#45;&gt;11: Correy Tidder</title>
<path fill="none" stroke="black" d="M833.64,-215.7C833.64,-208.41 833.64,-199.73 833.64,-191.54"/>
<polygon fill="black" stroke="black" points="837.14,-191.62 833.64,-181.62 830.14,-191.62 837.14,-191.62"/>
</g>
<!-- 6: Diann Dunsford -->
<g id="node6" class="node">
<title>6: Diann Dunsford</title>
<ellipse fill="none" stroke="red" cx="1186.64" cy="-162" rx="80.52" ry="18"/>
<text text-anchor="middle" x="1186.64" y="-156.95" font-family="Times,serif" font-size="14.00">6: Diann Dunsford</text>
</g>
<!-- 12: Correy O&#39;Hannen&#45;&gt;6: Diann Dunsford -->
<g id="edge5" class="edge">
<title>12: Correy O&#39;Hannen&#45;&gt;6: Diann Dunsford</title>
<path fill="none" stroke="black" d="M1186.64,-215.7C1186.64,-208.41 1186.64,-199.73 1186.64,-191.54"/>
<polygon fill="black" stroke="black" points="1190.14,-191.62 1186.64,-181.62 1183.14,-191.62 1190.14,-191.62"/>
</g>
<!-- 7: Osbert Bilverstone -->
<g id="node7" class="node">
<title>7: Osbert Bilverstone</title>
<ellipse fill="none" stroke="red" cx="1457.64" cy="-162" rx="90.25" ry="18"/>
<text text-anchor="middle" x="1457.64" y="-156.95" font-family="Times,serif" font-size="14.00">7: Osbert Bilverstone</text>
</g>
<!-- 12: Correy O&#39;Hannen&#45;&gt;7: Osbert Bilverstone -->
<g id="edge6" class="edge">
<title>12: Correy O&#39;Hannen&#45;&gt;7: Osbert Bilverstone</title>
<path fill="none" stroke="black" d="M1240.18,-219.17C1284.17,-207.81 1346.61,-191.68 1393.3,-179.62"/>
<polygon fill="black" stroke="black" points="1393.94,-183.07 1402.75,-177.18 1392.19,-176.29 1393.94,-183.07"/>
</g>
<!-- 16: Barrie Tidder -->
<g id="node8" class="node">
<title>16: Barrie Tidder</title>
<ellipse fill="none" stroke="red" cx="266.64" cy="-90" rx="74.89" ry="18"/>
<text text-anchor="middle" x="266.64" y="-84.95" font-family="Times,serif" font-size="14.00">16: Barrie Tidder</text>
</g>
<!-- 5: Barrie Sharpless&#45;&gt;16: Barrie Tidder -->
<g id="edge7" class="edge">
<title>5: Barrie Sharpless&#45;&gt;16: Barrie Tidder</title>
<path fill="none" stroke="black" d="M483.29,-147.59C438.68,-135.94 374.03,-119.05 326.97,-106.76"/>
<polygon fill="black" stroke="black" points="328.04,-103.42 317.48,-104.28 326.27,-110.19 328.04,-103.42"/>
</g>
<!-- 19: Wildon Bilverstone -->
<g id="node9" class="node">
<title>19: Wildon Bilverstone</title>
<ellipse fill="none" stroke="red" cx="534.64" cy="-90" rx="97.41" ry="18"/>
<text text-anchor="middle" x="534.64" y="-84.95" font-family="Times,serif" font-size="14.00">19: Wildon Bilverstone</text>
</g>
<!-- 5: Barrie Sharpless&#45;&gt;19: Wildon Bilverstone -->
<g id="edge8" class="edge">
<title>5: Barrie Sharpless&#45;&gt;19: Wildon Bilverstone</title>
<path fill="none" stroke="black" d="M534.64,-143.7C534.64,-136.41 534.64,-127.73 534.64,-119.54"/>
<polygon fill="black" stroke="black" points="538.14,-119.62 534.64,-109.62 531.14,-119.62 538.14,-119.62"/>
</g>
<!-- 2: Diann Tidder -->
<g id="node10" class="node">
<title>2: Diann Tidder</title>
<ellipse fill="none" stroke="red" cx="758.64" cy="-90" rx="69.78" ry="18"/>
<text text-anchor="middle" x="758.64" y="-84.95" font-family="Times,serif" font-size="14.00">2: Diann Tidder</text>
</g>
<!-- 11: Correy Tidder&#45;&gt;2: Diann Tidder -->
<g id="edge9" class="edge">
<title>11: Correy Tidder&#45;&gt;2: Diann Tidder</title>
<path fill="none" stroke="black" d="M815.49,-144.05C806.27,-135.46 794.92,-124.86 784.78,-115.4"/>
<polygon fill="black" stroke="black" points="787.44,-113.09 777.74,-108.82 782.66,-118.2 787.44,-113.09"/>
</g>
<!-- 10: Diann Dunsford -->
<g id="node11" class="node">
<title>10: Diann Dunsford</title>
<ellipse fill="none" stroke="red" cx="931.64" cy="-90" rx="85.13" ry="18"/>
<text text-anchor="middle" x="931.64" y="-84.95" font-family="Times,serif" font-size="14.00">10: Diann Dunsford</text>
</g>
<!-- 11: Correy Tidder&#45;&gt;10: Diann Dunsford -->
<g id="edge10" class="edge">
<title>11: Correy Tidder&#45;&gt;10: Diann Dunsford</title>
<path fill="none" stroke="black" d="M856.87,-144.41C869.47,-135.41 885.25,-124.14 899.06,-114.27"/>
<polygon fill="black" stroke="black" points="900.91,-117.25 907.01,-108.59 896.84,-111.56 900.91,-117.25"/>
</g>
<!-- 3: Diann Tidder -->
<g id="node12" class="node">
<title>3: Diann Tidder</title>
<ellipse fill="none" stroke="red" cx="1104.64" cy="-90" rx="69.78" ry="18"/>
<text text-anchor="middle" x="1104.64" y="-84.95" font-family="Times,serif" font-size="14.00">3: Diann Tidder</text>
</g>
<!-- 6: Diann Dunsford&#45;&gt;3: Diann Tidder -->
<g id="edge11" class="edge">
<title>6: Diann Dunsford&#45;&gt;3: Diann Tidder</title>
<path fill="none" stroke="black" d="M1167.21,-144.41C1156.97,-135.67 1144.22,-124.79 1132.91,-115.13"/>
<polygon fill="black" stroke="black" points="1135.25,-112.53 1125.37,-108.7 1130.7,-117.85 1135.25,-112.53"/>
</g>
<!-- 13: Diann Sharpless -->
<g id="node13" class="node">
<title>13: Diann Sharpless</title>
<ellipse fill="none" stroke="red" cx="1277.64" cy="-90" rx="85.64" ry="18"/>
<text text-anchor="middle" x="1277.64" y="-84.95" font-family="Times,serif" font-size="14.00">13: Diann Sharpless</text>
</g>
<!-- 6: Diann Dunsford&#45;&gt;13: Diann Sharpless -->
<g id="edge12" class="edge">
<title>6: Diann Dunsford&#45;&gt;13: Diann Sharpless</title>
<path fill="none" stroke="black" d="M1208.21,-144.41C1219.8,-135.5 1234.28,-124.36 1247.02,-114.56"/>
<polygon fill="black" stroke="black" points="1248.92,-117.51 1254.72,-108.64 1244.66,-111.96 1248.92,-117.51"/>
</g>
<!-- 14: Osbert Tidder -->
<g id="node14" class="node">
<title>14: Osbert Tidder</title>
<ellipse fill="none" stroke="red" cx="1457.64" cy="-90" rx="76.43" ry="18"/>
<text text-anchor="middle" x="1457.64" y="-84.95" font-family="Times,serif" font-size="14.00">14: Osbert Tidder</text>
</g>
<!-- 7: Osbert Bilverstone&#45;&gt;14: Osbert Tidder -->
<g id="edge13" class="edge">
<title>7: Osbert Bilverstone&#45;&gt;14: Osbert Tidder</title>
<path fill="none" stroke="black" d="M1457.64,-143.7C1457.64,-136.41 1457.64,-127.73 1457.64,-119.54"/>
<polygon fill="black" stroke="black" points="1461.14,-119.62 1457.64,-109.62 1454.14,-119.62 1461.14,-119.62"/>
</g>
<!-- 15: Wildon Sharpless -->
<g id="node15" class="node">
<title>15: Wildon Sharpless</title>
<ellipse fill="none" stroke="red" cx="1642.64" cy="-90" rx="90.25" ry="18"/>
<text text-anchor="middle" x="1642.64" y="-84.95" font-family="Times,serif" font-size="14.00">15: Wildon Sharpless</text>
</g>
<!-- 7: Osbert Bilverstone&#45;&gt;15: Wildon Sharpless -->
<g id="edge14" class="edge">
<title>7: Osbert Bilverstone&#45;&gt;15: Wildon Sharpless</title>
<path fill="none" stroke="black" d="M1498.24,-145.64C1525.62,-135.28 1561.96,-121.53 1591.34,-110.41"/>
<polygon fill="black" stroke="black" points="1592.29,-113.79 1600.4,-106.98 1589.81,-107.25 1592.29,-113.79"/>
</g>
<!-- 8: Wildon Sharpless -->
<g id="node16" class="node">
<title>8: Wildon Sharpless</title>
<ellipse fill="none" stroke="red" cx="85.64" cy="-18" rx="85.64" ry="18"/>
<text text-anchor="middle" x="85.64" y="-12.95" font-family="Times,serif" font-size="14.00">8: Wildon Sharpless</text>
</g>
<!-- 16: Barrie Tidder&#45;&gt;8: Wildon Sharpless -->
<g id="edge15" class="edge">
<title>16: Barrie Tidder&#45;&gt;8: Wildon Sharpless</title>
<path fill="none" stroke="black" d="M228.26,-74.15C201.27,-63.72 164.9,-49.65 135.65,-38.34"/>
<polygon fill="black" stroke="black" points="137.22,-35.2 126.64,-34.85 134.7,-41.73 137.22,-35.2"/>
</g>
<!-- 4: Peria Dunsford -->
<g id="node17" class="node">
<title>4: Peria Dunsford</title>
<ellipse fill="none" stroke="red" cx="266.64" cy="-18" rx="76.94" ry="18"/>
<text text-anchor="middle" x="266.64" y="-12.95" font-family="Times,serif" font-size="14.00">4: Peria Dunsford</text>
</g>
<!-- 16: Barrie Tidder&#45;&gt;4: Peria Dunsford -->
<g id="edge16" class="edge">
<title>16: Barrie Tidder&#45;&gt;4: Peria Dunsford</title>
<path fill="none" stroke="black" d="M266.64,-71.7C266.64,-64.41 266.64,-55.73 266.64,-47.54"/>
<polygon fill="black" stroke="black" points="270.14,-47.62 266.64,-37.62 263.14,-47.62 270.14,-47.62"/>
</g>
<!-- 9: Wildon Tidder -->
<g id="node18" class="node">
<title>9: Wildon Tidder</title>
<ellipse fill="none" stroke="red" cx="435.64" cy="-18" rx="74.38" ry="18"/>
<text text-anchor="middle" x="435.64" y="-12.95" font-family="Times,serif" font-size="14.00">9: Wildon Tidder</text>
</g>
<!-- 19: Wildon Bilverstone&#45;&gt;9: Wildon Tidder -->
<g id="edge17" class="edge">
<title>19: Wildon Bilverstone&#45;&gt;9: Wildon Tidder</title>
<path fill="none" stroke="black" d="M510.93,-72.23C498.1,-63.16 482.07,-51.83 468.1,-41.95"/>
<polygon fill="black" stroke="black" points="470.24,-39.18 460.06,-36.26 466.2,-44.89 470.24,-39.18"/>
</g>
<!-- 18: Wildon Bresland -->
<g id="node19" class="node">
<title>18: Wildon Bresland</title>
<ellipse fill="none" stroke="red" cx="615.64" cy="-18" rx="87.69" ry="18"/>
<text text-anchor="middle" x="615.64" y="-12.95" font-family="Times,serif" font-size="14.00">18: Wildon Bresland</text>
</g>
<!-- 19: Wildon Bilverstone&#45;&gt;18: Wildon Bresland -->
<g id="edge18" class="edge">
<title>19: Wildon Bilverstone&#45;&gt;18: Wildon Bresland</title>
<path fill="none" stroke="black" d="M554.25,-72.05C564.23,-63.43 576.53,-52.8 587.5,-43.32"/>
<polygon fill="black" stroke="black" points="589.51,-46.21 594.79,-37.02 584.93,-40.91 589.51,-46.21"/>
</g>
<!-- 20: Osbert Tidder -->
<g id="node20" class="node">
<title>20: Osbert Tidder</title>
<ellipse fill="none" stroke="red" cx="797.64" cy="-18" rx="76.43" ry="18"/>
<text text-anchor="middle" x="797.64" y="-12.95" font-family="Times,serif" font-size="14.00">20: Osbert Tidder</text>
</g>
<!-- 2: Diann Tidder&#45;&gt;20: Osbert Tidder -->
<g id="edge19" class="edge">
<title>2: Diann Tidder&#45;&gt;20: Osbert Tidder</title>
<path fill="none" stroke="black" d="M768.28,-71.7C772.58,-63.98 777.75,-54.71 782.54,-46.11"/>
<polygon fill="black" stroke="black" points="785.57,-47.87 787.38,-37.43 779.45,-44.46 785.57,-47.87"/>
</g>
</g>
</svg>
