<svg width="494px" height="260px"
 viewBox="0.00 0.00 494.00 260.00" xmlns="http://www.w3.org/2000/svg" xmlns:xlink="http://www.w3.org/1999/xlink">
<g id="graph0" class="graph" transform="scale(1.0 1.0) rotate(0.0) translate(4.0 256.0)">
<polygon fill="white" stroke="none" points="-4,4 -4,-256 490,-256 490,4 -4,4"/>
<!-- 7 -->
<g id="node1" class="node">
<title>7</title>
<ellipse fill="none" stroke="red" cx="279" cy="-234" rx="27" ry="18"/>
<text text-anchor="middle" x="279" y="-228.95" font-family="Times,serif" font-size="14.00">7</text>
</g>
<!-- 8 -->
<g id="node2" class="node">
<title>8</title>
<ellipse fill="none" stroke="red" cx="207" cy="-162" rx="27" ry="18"/>
<text text-anchor="middle" x="207" y="-156.95" font-family="Times,serif" font-size="14.00">8</text>
</g>
<!-- 7&#45;&gt;8 -->
<g id="edge1" class="edge">
<title>7&#45;&gt;8</title>
<path fill="none" stroke="black" d="M264.08,-218.5C254.23,-208.92 241.14,-196.19 229.97,-185.34"/>
<polygon fill="black" stroke="black" points="232.59,-183 222.98,-178.54 227.71,-188.02 232.59,-183"/>
</g>
<!-- 12 -->
<g id="node3" class="node">
<title>12</title>
<ellipse fill="none" stroke="red" cx="333" cy="-162" rx="27" ry="18"/>
<text text-anchor="middle" x="333" y="-156.95" font-family="Times,serif" font-size="14.00">12</text>
</g>
<!-- 7&#45;&gt;12 -->
<g id="edge2" class="edge">
<title>7&#45;&gt;12</title>
<path fill="none" stroke="black" d="M290.98,-217.46C297.77,-208.67 306.4,-197.48 314.08,-187.53"/>
<polygon fill="black" stroke="black" points="316.79,-189.75 320.12,-179.69 311.25,-185.47 316.79,-189.75"/>
</g>
<!-- 9 -->
<g id="node4" class="node">
<title>9</title>
<ellipse fill="none" stroke="red" cx="99" cy="-90" rx="27" ry="18"/>
<text text-anchor="middle" x="99" y="-84.95" font-family="Times,serif" font-size="14.00">9</text>
</g>
<!-- 8&#45;&gt;9 -->
<g id="edge3" class="edge">
<title>8&#45;&gt;9</title>
<path fill="none" stroke="black" d="M188.19,-148.81C171.41,-137.93 146.61,-121.86 127.41,-109.42"/>
<polygon fill="black" stroke="black" points="129.52,-106.61 119.23,-104.11 125.72,-112.49 129.52,-106.61"/>
</g>
<!-- 10 -->
<g id="node5" class="node">
<title>10</title>
<ellipse fill="none" stroke="red" cx="207" cy="-90" rx="27" ry="18"/>
<text text-anchor="middle" x="207" y="-84.95" font-family="Times,serif" font-size="14.00">10</text>
</g>
<!-- 8&#45;&gt;10 -->
<g id="edge4" class="edge">
<title>8&#45;&gt;10</title>
<path fill="none" stroke="black" d="M207,-143.7C207,-136.41 207,-127.73 207,-119.54"/>
<polygon fill="black" stroke="black" points="210.5,-119.62 207,-109.62 203.5,-119.62 210.5,-119.62"/>
</g>
<!-- 13 -->
<g id="node6" class="node">
<title>13</title>
<ellipse fill="none" stroke="red" cx="333" cy="-90" rx="27" ry="18"/>
<text text-anchor="middle" x="333" y="-84.95" font-family="Times,serif" font-size="14.00">13</text>
</g>
<!-- 12&#45;&gt;13 -->
<g id="edge5" class="edge">
<title>12&#45;&gt;13</title>
<path fill="none" stroke="black" d="M333,-143.7C333,-136.41 333,-127.73 333,-119.54"/>
<polygon fill="black" stroke="black" points="336.5,-119.62 333,-109.62 329.5,-119.62 336.5,-119.62"/>
</g>
<!-- 14 -->
<g id="node7" class="node">
<title>14</title>
<ellipse fill="none" stroke="red" cx="441" cy="-90" rx="27" ry="18"/>
<text text-anchor="middle" x="441" y="-84.95" font-family="Times,serif" font-size="14.00">14</text>
</g>
<!-- 12&#45;&gt;14 -->
<g id="edge6" class="edge">
<title>12&#45;&gt;14</title>
<path fill="none" stroke="black" d="M351.81,-148.81C368.59,-137.93 393.39,-121.86 412.59,-109.42"/>
<polygon fill="black" stroke="black" points="414.28,-112.49 420.77,-104.11 410.48,-106.61 414.28,-112.49"/>
</g>
<!-- 16 -->
<g id="node8" class="node">
<title>16</title>
<ellipse fill="none" stroke="red" cx="27" cy="-18" rx="27" ry="18"/>
<text text-anchor="middle" x="27" y="-12.95" font-family="Times,serif" font-size="14.00">16</text>
</g>
<!-- 9&#45;&gt;16 -->
<g id="edge7" class="edge">
<title>9&#45;&gt;16</title>
<path fill="none" stroke="black" d="M84.08,-74.5C74.23,-64.92 61.14,-52.19 49.97,-41.34"/>
<polygon fill="black" stroke="black" points="52.59,-39 42.98,-34.54 47.71,-44.02 52.59,-39"/>
</g>
<!-- 17 -->
<g id="node9" class="node">
<title>17</title>
<ellipse fill="none" stroke="red" cx="99" cy="-18" rx="27" ry="18"/>
<text text-anchor="middle" x="99" y="-12.95" font-family="Times,serif" font-size="14.00">17</text>
</g>
<!-- 9&#45;&gt;17 -->
<g id="edge8" class="edge">
<title>9&#45;&gt;17</title>
<path fill="none" stroke="black" d="M99,-71.7C99,-64.41 99,-55.73 99,-47.54"/>
<polygon fill="black" stroke="black" points="102.5,-47.62 99,-37.62 95.5,-47.62 102.5,-47.62"/>
</g>
<!-- 18 -->
<g id="node10" class="node">
<title>18</title>
<ellipse fill="none" stroke="red" cx="171" cy="-18" rx="27" ry="18"/>
<text text-anchor="middle" x="171" y="-12.95" font-family="Times,serif" font-size="14.00">18</text>
</g>
<!-- 10&#45;&gt;18 -->
<g id="edge9" class="edge">
<title>10&#45;&gt;18</title>
<path fill="none" stroke="black" d="M198.65,-72.76C194.42,-64.55 189.19,-54.37 184.42,-45.09"/>
<polygon fill="black" stroke="black" points="187.68,-43.79 180,-36.49 181.46,-46.99 187.68,-43.79"/>
</g>
<!-- 11 -->
<g id="node11" class="node">
<title>11</title>
<ellipse fill="none" stroke="red" cx="243" cy="-18" rx="27" ry="18"/>
<text text-anchor="middle" x="243" y="-12.95" font-family="Times,serif" font-size="14.00">11</text>
</g>
<!-- 10&#45;&gt;11 -->
<g id="edge10" class="edge">
<title>10&#45;&gt;11</title>
<path fill="none" stroke="black" d="M215.35,-72.76C219.58,-64.55 224.81,-54.37 229.58,-45.09"/>
<polygon fill="black" stroke="black" points="232.54,-46.99 234,-36.49 226.32,-43.79 232.54,-46.99"/>
</g>
<!-- 19 -->
<g id="node12" class="node">
<title>19</title>
<ellipse fill="none" stroke="red" cx="315" cy="-18" rx="27" ry="18"/>
<text text-anchor="middle" x="315" y="-12.95" font-family="Times,serif" font-size="14.00">19</text>
</g>
<!-- 13&#45;&gt;19 -->
<g id="edge11" class="edge">
<title>13&#45;&gt;19</title>
<path fill="none" stroke="black" d="M328.64,-72.05C326.7,-64.49 324.35,-55.37 322.16,-46.85"/>
<polygon fill="black" stroke="black" points="325.57,-46.07 319.69,-37.25 318.79,-47.81 325.57,-46.07"/>
</g>
<!-- 15 -->
<g id="node13" class="node">
<title>15</title>
<ellipse fill="none" stroke="red" cx="387" cy="-18" rx="27" ry="18"/>
<text text-anchor="middle" x="387" y="-12.95" font-family="Times,serif" font-size="14.00">15</text>
</g>
<!-- 13&#45;&gt;15 -->
<g id="edge12" class="edge">
<title>13&#45;&gt;15</title>
<path fill="none" stroke="black" d="M344.98,-73.46C351.77,-64.67 360.4,-53.48 368.08,-43.53"/>
<polygon fill="black" stroke="black" points="370.79,-45.75 374.12,-35.69 365.25,-41.47 370.79,-45.75"/>
</g>
<!-- 20 -->
<g id="node14" class="node">
<title>20</title>
<ellipse fill="none" stroke="red" cx="459" cy="-18" rx="27" ry="18"/>
<text text-anchor="middle" x="459" y="-12.95" font-family="Times,serif" font-size="14.00">20</text>
</g>
<!-- 14&#45;&gt;20 -->
<g id="edge13" class="edge">
<title>14&#45;&gt;20</title>
<path fill="none" stroke="black" d="M445.36,-72.05C447.3,-64.49 449.65,-55.37 451.84,-46.85"/>
<polygon fill="black" stroke="black" points="455.21,-47.81 454.31,-37.25 448.43,-46.07 455.21,-47.81"/>
</g>
</g>
</svg>
