<svg width="566px" height="764px"
 viewBox="0.00 0.00 566.00 764.00" xmlns="http://www.w3.org/2000/svg" xmlns:xlink="http://www.w3.org/1999/xlink">
<g id="graph0" class="graph" transform="scale(1.0 1.0) rotate(0.0) translate(4.0 760.0)">
<polygon fill="white" stroke="none" points="-4,4 -4,-760 562,-760 562,4 -4,4"/>
<!-- ROOT -->
<g id="node1" class="node">
<title>ROOT</title>
<ellipse fill="none" stroke="black" cx="279" cy="-738" rx="36" ry="18"/>
<text text-anchor="middle" x="279" y="-732.95" font-family="Times,serif" font-size="14.00">ROOT</text>
</g>
<!-- a_1_0 -->
<g id="node2" class="node">
<title>a_1_0</title>
<ellipse fill="none" stroke="black" cx="86" cy="-666" rx="27" ry="18"/>
<text text-anchor="middle" x="86" y="-660.95" font-family="Times,serif" font-size="14.00">a</text>
</g>
<!-- ROOT&#45;&gt;a_1_0 -->
<g id="edge1" class="edge">
<title>ROOT&#45;&gt;a_1_0</title>
<path fill="none" stroke="black" d="M250.02,-726.79C220.14,-716.22 172.24,-699.17 131,-684 127.28,-682.63 123.4,-681.19 119.53,-679.74"/>
<polygon fill="black" stroke="black" points="120.87,-676.51 110.28,-676.26 118.41,-683.06 120.87,-676.51"/>
</g>
<!-- d_1_5 -->
<g id="node7" class="node">
<title>d_1_5</title>
<ellipse fill="none" stroke="black" cx="167" cy="-666" rx="27" ry="18"/>
<text text-anchor="middle" x="167" y="-660.95" font-family="Times,serif" font-size="14.00">d</text>
</g>
<!-- ROOT&#45;&gt;d_1_5 -->
<g id="edge2" class="edge">
<title>ROOT&#45;&gt;d_1_5</title>
<path fill="none" stroke="black" d="M257.14,-723.34C239.66,-712.41 214.99,-697 195.88,-685.05"/>
<polygon fill="black" stroke="black" points="197.81,-682.13 187.48,-679.8 194.1,-688.07 197.81,-682.13"/>
</g>
<!-- f_1_11 -->
<g id="node13" class="node">
<title>f_1_11</title>
<ellipse fill="none" stroke="black" cx="243" cy="-666" rx="27" ry="18"/>
<text text-anchor="middle" x="243" y="-660.95" font-family="Times,serif" font-size="14.00">f</text>
</g>
<!-- ROOT&#45;&gt;f_1_11 -->
<g id="edge3" class="edge">
<title>ROOT&#45;&gt;f_1_11</title>
<path fill="none" stroke="black" d="M270.29,-720.05C266.16,-712.03 261.13,-702.26 256.52,-693.3"/>
<polygon fill="black" stroke="black" points="259.76,-691.95 252.08,-684.65 253.54,-695.15 259.76,-691.95"/>
</g>
<!-- h_1_24 -->
<g id="node26" class="node">
<title>h_1_24</title>
<ellipse fill="none" stroke="black" cx="315" cy="-666" rx="27" ry="18"/>
<text text-anchor="middle" x="315" y="-660.95" font-family="Times,serif" font-size="14.00">h</text>
</g>
<!-- ROOT&#45;&gt;h_1_24 -->
<g id="edge4" class="edge">
<title>ROOT&#45;&gt;h_1_24</title>
<path fill="none" stroke="black" d="M287.71,-720.05C291.84,-712.03 296.87,-702.26 301.48,-693.3"/>
<polygon fill="black" stroke="black" points="304.46,-695.15 305.92,-684.65 298.24,-691.95 304.46,-695.15"/>
</g>
<!-- o_1_30 -->
<g id="node32" class="node">
<title>o_1_30</title>
<ellipse fill="none" stroke="black" cx="387" cy="-666" rx="27" ry="18"/>
<text text-anchor="middle" x="387" y="-660.95" font-family="Times,serif" font-size="14.00">o</text>
</g>
<!-- ROOT&#45;&gt;o_1_30 -->
<g id="edge5" class="edge">
<title>ROOT&#45;&gt;o_1_30</title>
<path fill="none" stroke="black" d="M300.34,-723.17C317.04,-712.35 340.42,-697.19 358.68,-685.35"/>
<polygon fill="black" stroke="black" points="360.47,-688.36 366.96,-679.99 356.67,-682.49 360.47,-688.36"/>
</g>
<!-- w_1_37 -->
<g id="node39" class="node">
<title>w_1_37</title>
<ellipse fill="none" stroke="black" cx="459" cy="-666" rx="27" ry="18"/>
<text text-anchor="middle" x="459" y="-660.95" font-family="Times,serif" font-size="14.00">w</text>
</g>
<!-- ROOT&#45;&gt;w_1_37 -->
<g id="edge6" class="edge">
<title>ROOT&#45;&gt;w_1_37</title>
<path fill="none" stroke="black" d="M308.25,-727.09C337.56,-716.96 383.81,-700.43 423,-684 424.51,-683.37 426.06,-682.7 427.61,-682.02"/>
<polygon fill="black" stroke="black" points="428.79,-685.33 436.44,-678.01 425.89,-678.96 428.79,-685.33"/>
</g>
<!-- p_2_1 -->
<g id="node3" class="node">
<title>p_2_1</title>
<ellipse fill="none" stroke="black" cx="68" cy="-594" rx="27" ry="18"/>
<text text-anchor="middle" x="68" y="-588.95" font-family="Times,serif" font-size="14.00">p</text>
</g>
<!-- a_1_0&#45;&gt;p_2_1 -->
<g id="edge7" class="edge">
<title>a_1_0&#45;&gt;p_2_1</title>
<path fill="none" stroke="black" d="M81.64,-648.05C79.7,-640.49 77.35,-631.37 75.16,-622.85"/>
<polygon fill="black" stroke="black" points="78.57,-622.07 72.69,-613.25 71.79,-623.81 78.57,-622.07"/>
</g>
<!-- p_3_2 -->
<g id="node4" class="node">
<title>p_3_2</title>
<ellipse fill="none" stroke="black" cx="32" cy="-522" rx="27" ry="18"/>
<text text-anchor="middle" x="32" y="-516.95" font-family="Times,serif" font-size="14.00">p</text>
</g>
<!-- p_2_1&#45;&gt;p_3_2 -->
<g id="edge8" class="edge">
<title>p_2_1&#45;&gt;p_3_2</title>
<path fill="none" stroke="black" d="M59.65,-576.76C55.42,-568.55 50.19,-558.37 45.42,-549.09"/>
<polygon fill="black" stroke="black" points="48.68,-547.79 41,-540.49 42.46,-550.99 48.68,-547.79"/>
</g>
<!-- l_4_3 -->
<g id="node5" class="node">
<title>l_4_3</title>
<ellipse fill="none" stroke="black" cx="27" cy="-450" rx="27" ry="18"/>
<text text-anchor="middle" x="27" y="-444.95" font-family="Times,serif" font-size="14.00">l</text>
</g>
<!-- p_3_2&#45;&gt;l_4_3 -->
<g id="edge9" class="edge">
<title>p_3_2&#45;&gt;l_4_3</title>
<path fill="none" stroke="black" d="M30.76,-503.7C30.24,-496.41 29.62,-487.73 29.04,-479.54"/>
<polygon fill="black" stroke="black" points="32.53,-479.34 28.33,-469.61 25.55,-479.84 32.53,-479.34"/>
</g>
<!-- e_5_4 -->
<g id="node6" class="node">
<title>e_5_4</title>
<ellipse fill="none" stroke="red" cx="27" cy="-378" rx="27" ry="18"/>
<text text-anchor="middle" x="27" y="-372.95" font-family="Times,serif" font-size="14.00">e</text>
</g>
<!-- l_4_3&#45;&gt;e_5_4 -->
<g id="edge10" class="edge">
<title>l_4_3&#45;&gt;e_5_4</title>
<path fill="none" stroke="black" d="M27,-431.7C27,-424.41 27,-415.73 27,-407.54"/>
<polygon fill="black" stroke="black" points="30.5,-407.62 27,-397.62 23.5,-407.62 30.5,-407.62"/>
</g>
<!-- a_2_6 -->
<g id="node8" class="node">
<title>a_2_6</title>
<ellipse fill="none" stroke="black" cx="167" cy="-594" rx="27" ry="18"/>
<text text-anchor="middle" x="167" y="-588.95" font-family="Times,serif" font-size="14.00">a</text>
</g>
<!-- d_1_5&#45;&gt;a_2_6 -->
<g id="edge11" class="edge">
<title>d_1_5&#45;&gt;a_2_6</title>
<path fill="none" stroke="black" d="M167,-647.7C167,-640.41 167,-631.73 167,-623.54"/>
<polygon fill="black" stroke="black" points="170.5,-623.62 167,-613.62 163.5,-623.62 170.5,-623.62"/>
</g>
<!-- p_3_7 -->
<g id="node9" class="node">
<title>p_3_7</title>
<ellipse fill="none" stroke="black" cx="167" cy="-522" rx="27" ry="18"/>
<text text-anchor="middle" x="167" y="-516.95" font-family="Times,serif" font-size="14.00">p</text>
</g>
<!-- a_2_6&#45;&gt;p_3_7 -->
<g id="edge12" class="edge">
<title>a_2_6&#45;&gt;p_3_7</title>
<path fill="none" stroke="black" d="M167,-575.7C167,-568.41 167,-559.73 167,-551.54"/>
<polygon fill="black" stroke="black" points="170.5,-551.62 167,-541.62 163.5,-551.62 170.5,-551.62"/>
</g>
<!-- p_4_8 -->
<g id="node10" class="node">
<title>p_4_8</title>
<ellipse fill="none" stroke="black" cx="99" cy="-450" rx="27" ry="18"/>
<text text-anchor="middle" x="99" y="-444.95" font-family="Times,serif" font-size="14.00">p</text>
</g>
<!-- p_3_7&#45;&gt;p_4_8 -->
<g id="edge13" class="edge">
<title>p_3_7&#45;&gt;p_4_8</title>
<path fill="none" stroke="black" d="M152.91,-506.5C143.7,-497.02 131.48,-484.44 121.01,-473.66"/>
<polygon fill="black" stroke="black" points="123.6,-471.31 114.13,-466.57 118.58,-476.18 123.6,-471.31"/>
</g>
<!-- l_5_9 -->
<g id="node11" class="node">
<title>l_5_9</title>
<ellipse fill="none" stroke="black" cx="99" cy="-378" rx="27" ry="18"/>
<text text-anchor="middle" x="99" y="-372.95" font-family="Times,serif" font-size="14.00">l</text>
</g>
<!-- p_4_8&#45;&gt;l_5_9 -->
<g id="edge14" class="edge">
<title>p_4_8&#45;&gt;l_5_9</title>
<path fill="none" stroke="black" d="M99,-431.7C99,-424.41 99,-415.73 99,-407.54"/>
<polygon fill="black" stroke="black" points="102.5,-407.62 99,-397.62 95.5,-407.62 102.5,-407.62"/>
</g>
<!-- e_6_10 -->
<g id="node12" class="node">
<title>e_6_10</title>
<ellipse fill="none" stroke="red" cx="99" cy="-306" rx="27" ry="18"/>
<text text-anchor="middle" x="99" y="-300.95" font-family="Times,serif" font-size="14.00">e</text>
</g>
<!-- l_5_9&#45;&gt;e_6_10 -->
<g id="edge15" class="edge">
<title>l_5_9&#45;&gt;e_6_10</title>
<path fill="none" stroke="black" d="M99,-359.7C99,-352.41 99,-343.73 99,-335.54"/>
<polygon fill="black" stroke="black" points="102.5,-335.62 99,-325.62 95.5,-335.62 102.5,-335.62"/>
</g>
<!-- o_2_12 -->
<g id="node14" class="node">
<title>o_2_12</title>
<ellipse fill="none" stroke="black" cx="243" cy="-594" rx="27" ry="18"/>
<text text-anchor="middle" x="243" y="-588.95" font-family="Times,serif" font-size="14.00">o</text>
</g>
<!-- f_1_11&#45;&gt;o_2_12 -->
<g id="edge16" class="edge">
<title>f_1_11&#45;&gt;o_2_12</title>
<path fill="none" stroke="black" d="M243,-647.7C243,-640.41 243,-631.73 243,-623.54"/>
<polygon fill="black" stroke="black" points="246.5,-623.62 243,-613.62 239.5,-623.62 246.5,-623.62"/>
</g>
<!-- o_3_13 -->
<g id="node15" class="node">
<title>o_3_13</title>
<ellipse fill="none" stroke="black" cx="243" cy="-522" rx="27" ry="18"/>
<text text-anchor="middle" x="243" y="-516.95" font-family="Times,serif" font-size="14.00">o</text>
</g>
<!-- o_2_12&#45;&gt;o_3_13 -->
<g id="edge17" class="edge">
<title>o_2_12&#45;&gt;o_3_13</title>
<path fill="none" stroke="black" d="M243,-575.7C243,-568.41 243,-559.73 243,-551.54"/>
<polygon fill="black" stroke="black" points="246.5,-551.62 243,-541.62 239.5,-551.62 246.5,-551.62"/>
</g>
<!-- s_4_14 -->
<g id="node16" class="node">
<title>s_4_14</title>
<ellipse fill="none" stroke="black" cx="171" cy="-450" rx="27" ry="18"/>
<text text-anchor="middle" x="171" y="-444.95" font-family="Times,serif" font-size="14.00">s</text>
</g>
<!-- o_3_13&#45;&gt;s_4_14 -->
<g id="edge18" class="edge">
<title>o_3_13&#45;&gt;s_4_14</title>
<path fill="none" stroke="black" d="M228.08,-506.5C218.23,-496.92 205.14,-484.19 193.97,-473.34"/>
<polygon fill="black" stroke="black" points="196.59,-471 186.98,-466.54 191.71,-476.02 196.59,-471"/>
</g>
<!-- t_4_19 -->
<g id="node21" class="node">
<title>t_4_19</title>
<ellipse fill="none" stroke="black" cx="243" cy="-450" rx="27" ry="18"/>
<text text-anchor="middle" x="243" y="-444.95" font-family="Times,serif" font-size="14.00">t</text>
</g>
<!-- o_3_13&#45;&gt;t_4_19 -->
<g id="edge19" class="edge">
<title>o_3_13&#45;&gt;t_4_19</title>
<path fill="none" stroke="black" d="M243,-503.7C243,-496.41 243,-487.73 243,-479.54"/>
<polygon fill="black" stroke="black" points="246.5,-479.62 243,-469.62 239.5,-479.62 246.5,-479.62"/>
</g>
<!-- b_5_15 -->
<g id="node17" class="node">
<title>b_5_15</title>
<ellipse fill="none" stroke="black" cx="171" cy="-378" rx="27" ry="18"/>
<text text-anchor="middle" x="171" y="-372.95" font-family="Times,serif" font-size="14.00">b</text>
</g>
<!-- s_4_14&#45;&gt;b_5_15 -->
<g id="edge20" class="edge">
<title>s_4_14&#45;&gt;b_5_15</title>
<path fill="none" stroke="black" d="M171,-431.7C171,-424.41 171,-415.73 171,-407.54"/>
<polygon fill="black" stroke="black" points="174.5,-407.62 171,-397.62 167.5,-407.62 174.5,-407.62"/>
</g>
<!-- a_6_16 -->
<g id="node18" class="node">
<title>a_6_16</title>
<ellipse fill="none" stroke="black" cx="171" cy="-306" rx="27" ry="18"/>
<text text-anchor="middle" x="171" y="-300.95" font-family="Times,serif" font-size="14.00">a</text>
</g>
<!-- b_5_15&#45;&gt;a_6_16 -->
<g id="edge21" class="edge">
<title>b_5_15&#45;&gt;a_6_16</title>
<path fill="none" stroke="black" d="M171,-359.7C171,-352.41 171,-343.73 171,-335.54"/>
<polygon fill="black" stroke="black" points="174.5,-335.62 171,-325.62 167.5,-335.62 174.5,-335.62"/>
</g>
<!-- l_7_17 -->
<g id="node19" class="node">
<title>l_7_17</title>
<ellipse fill="none" stroke="black" cx="171" cy="-234" rx="27" ry="18"/>
<text text-anchor="middle" x="171" y="-228.95" font-family="Times,serif" font-size="14.00">l</text>
</g>
<!-- a_6_16&#45;&gt;l_7_17 -->
<g id="edge22" class="edge">
<title>a_6_16&#45;&gt;l_7_17</title>
<path fill="none" stroke="black" d="M171,-287.7C171,-280.41 171,-271.73 171,-263.54"/>
<polygon fill="black" stroke="black" points="174.5,-263.62 171,-253.62 167.5,-263.62 174.5,-263.62"/>
</g>
<!-- l_8_18 -->
<g id="node20" class="node">
<title>l_8_18</title>
<ellipse fill="none" stroke="red" cx="171" cy="-162" rx="27" ry="18"/>
<text text-anchor="middle" x="171" y="-156.95" font-family="Times,serif" font-size="14.00">l</text>
</g>
<!-- l_7_17&#45;&gt;l_8_18 -->
<g id="edge23" class="edge">
<title>l_7_17&#45;&gt;l_8_18</title>
<path fill="none" stroke="black" d="M171,-215.7C171,-208.41 171,-199.73 171,-191.54"/>
<polygon fill="black" stroke="black" points="174.5,-191.62 171,-181.62 167.5,-191.62 174.5,-191.62"/>
</g>
<!-- b_5_20 -->
<g id="node22" class="node">
<title>b_5_20</title>
<ellipse fill="none" stroke="black" cx="243" cy="-378" rx="27" ry="18"/>
<text text-anchor="middle" x="243" y="-372.95" font-family="Times,serif" font-size="14.00">b</text>
</g>
<!-- t_4_19&#45;&gt;b_5_20 -->
<g id="edge24" class="edge">
<title>t_4_19&#45;&gt;b_5_20</title>
<path fill="none" stroke="black" d="M243,-431.7C243,-424.41 243,-415.73 243,-407.54"/>
<polygon fill="black" stroke="black" points="246.5,-407.62 243,-397.62 239.5,-407.62 246.5,-407.62"/>
</g>
<!-- a_6_21 -->
<g id="node23" class="node">
<title>a_6_21</title>
<ellipse fill="none" stroke="black" cx="243" cy="-306" rx="27" ry="18"/>
<text text-anchor="middle" x="243" y="-300.95" font-family="Times,serif" font-size="14.00">a</text>
</g>
<!-- b_5_20&#45;&gt;a_6_21 -->
<g id="edge25" class="edge">
<title>b_5_20&#45;&gt;a_6_21</title>
<path fill="none" stroke="black" d="M243,-359.7C243,-352.41 243,-343.73 243,-335.54"/>
<polygon fill="black" stroke="black" points="246.5,-335.62 243,-325.62 239.5,-335.62 246.5,-335.62"/>
</g>
<!-- l_7_22 -->
<g id="node24" class="node">
<title>l_7_22</title>
<ellipse fill="none" stroke="black" cx="243" cy="-234" rx="27" ry="18"/>
<text text-anchor="middle" x="243" y="-228.95" font-family="Times,serif" font-size="14.00">l</text>
</g>
<!-- a_6_21&#45;&gt;l_7_22 -->
<g id="edge26" class="edge">
<title>a_6_21&#45;&gt;l_7_22</title>
<path fill="none" stroke="black" d="M243,-287.7C243,-280.41 243,-271.73 243,-263.54"/>
<polygon fill="black" stroke="black" points="246.5,-263.62 243,-253.62 239.5,-263.62 246.5,-263.62"/>
</g>
<!-- l_8_23 -->
<g id="node25" class="node">
<title>l_8_23</title>
<ellipse fill="none" stroke="red" cx="243" cy="-162" rx="27" ry="18"/>
<text text-anchor="middle" x="243" y="-156.95" font-family="Times,serif" font-size="14.00">l</text>
</g>
<!-- l_7_22&#45;&gt;l_8_23 -->
<g id="edge27" class="edge">
<title>l_7_22&#45;&gt;l_8_23</title>
<path fill="none" stroke="black" d="M243,-215.7C243,-208.41 243,-199.73 243,-191.54"/>
<polygon fill="black" stroke="black" points="246.5,-191.62 243,-181.62 239.5,-191.62 246.5,-191.62"/>
</g>
<!-- u_2_25 -->
<g id="node27" class="node">
<title>u_2_25</title>
<ellipse fill="none" stroke="black" cx="315" cy="-594" rx="27" ry="18"/>
<text text-anchor="middle" x="315" y="-588.95" font-family="Times,serif" font-size="14.00">u</text>
</g>
<!-- h_1_24&#45;&gt;u_2_25 -->
<g id="edge28" class="edge">
<title>h_1_24&#45;&gt;u_2_25</title>
<path fill="none" stroke="black" d="M315,-647.7C315,-640.41 315,-631.73 315,-623.54"/>
<polygon fill="black" stroke="black" points="318.5,-623.62 315,-613.62 311.5,-623.62 318.5,-623.62"/>
</g>
<!-- n_3_26 -->
<g id="node28" class="node">
<title>n_3_26</title>
<ellipse fill="none" stroke="black" cx="315" cy="-522" rx="27" ry="18"/>
<text text-anchor="middle" x="315" y="-516.95" font-family="Times,serif" font-size="14.00">n</text>
</g>
<!-- u_2_25&#45;&gt;n_3_26 -->
<g id="edge29" class="edge">
<title>u_2_25&#45;&gt;n_3_26</title>
<path fill="none" stroke="black" d="M315,-575.7C315,-568.41 315,-559.73 315,-551.54"/>
<polygon fill="black" stroke="black" points="318.5,-551.62 315,-541.62 311.5,-551.62 318.5,-551.62"/>
</g>
<!-- g_4_27 -->
<g id="node29" class="node">
<title>g_4_27</title>
<ellipse fill="none" stroke="black" cx="315" cy="-450" rx="27" ry="18"/>
<text text-anchor="middle" x="315" y="-444.95" font-family="Times,serif" font-size="14.00">g</text>
</g>
<!-- n_3_26&#45;&gt;g_4_27 -->
<g id="edge30" class="edge">
<title>n_3_26&#45;&gt;g_4_27</title>
<path fill="none" stroke="black" d="M315,-503.7C315,-496.41 315,-487.73 315,-479.54"/>
<polygon fill="black" stroke="black" points="318.5,-479.62 315,-469.62 311.5,-479.62 318.5,-479.62"/>
</g>
<!-- r_5_28 -->
<g id="node30" class="node">
<title>r_5_28</title>
<ellipse fill="none" stroke="black" cx="315" cy="-378" rx="27" ry="18"/>
<text text-anchor="middle" x="315" y="-372.95" font-family="Times,serif" font-size="14.00">r</text>
</g>
<!-- g_4_27&#45;&gt;r_5_28 -->
<g id="edge31" class="edge">
<title>g_4_27&#45;&gt;r_5_28</title>
<path fill="none" stroke="black" d="M315,-431.7C315,-424.41 315,-415.73 315,-407.54"/>
<polygon fill="black" stroke="black" points="318.5,-407.62 315,-397.62 311.5,-407.62 318.5,-407.62"/>
</g>
<!-- y_6_29 -->
<g id="node31" class="node">
<title>y_6_29</title>
<ellipse fill="none" stroke="red" cx="315" cy="-306" rx="27" ry="18"/>
<text text-anchor="middle" x="315" y="-300.95" font-family="Times,serif" font-size="14.00">y</text>
</g>
<!-- r_5_28&#45;&gt;y_6_29 -->
<g id="edge32" class="edge">
<title>r_5_28&#45;&gt;y_6_29</title>
<path fill="none" stroke="black" d="M315,-359.7C315,-352.41 315,-343.73 315,-335.54"/>
<polygon fill="black" stroke="black" points="318.5,-335.62 315,-325.62 311.5,-335.62 318.5,-335.62"/>
</g>
<!-- r_2_31 -->
<g id="node33" class="node">
<title>r_2_31</title>
<ellipse fill="none" stroke="black" cx="387" cy="-594" rx="27" ry="18"/>
<text text-anchor="middle" x="387" y="-588.95" font-family="Times,serif" font-size="14.00">r</text>
</g>
<!-- o_1_30&#45;&gt;r_2_31 -->
<g id="edge33" class="edge">
<title>o_1_30&#45;&gt;r_2_31</title>
<path fill="none" stroke="black" d="M387,-647.7C387,-640.41 387,-631.73 387,-623.54"/>
<polygon fill="black" stroke="black" points="390.5,-623.62 387,-613.62 383.5,-623.62 390.5,-623.62"/>
</g>
<!-- a_3_32 -->
<g id="node34" class="node">
<title>a_3_32</title>
<ellipse fill="none" stroke="black" cx="387" cy="-522" rx="27" ry="18"/>
<text text-anchor="middle" x="387" y="-516.95" font-family="Times,serif" font-size="14.00">a</text>
</g>
<!-- r_2_31&#45;&gt;a_3_32 -->
<g id="edge34" class="edge">
<title>r_2_31&#45;&gt;a_3_32</title>
<path fill="none" stroke="black" d="M387,-575.7C387,-568.41 387,-559.73 387,-551.54"/>
<polygon fill="black" stroke="black" points="390.5,-551.62 387,-541.62 383.5,-551.62 390.5,-551.62"/>
</g>
<!-- n_4_33 -->
<g id="node35" class="node">
<title>n_4_33</title>
<ellipse fill="none" stroke="black" cx="387" cy="-450" rx="27" ry="18"/>
<text text-anchor="middle" x="387" y="-444.95" font-family="Times,serif" font-size="14.00">n</text>
</g>
<!-- a_3_32&#45;&gt;n_4_33 -->
<g id="edge35" class="edge">
<title>a_3_32&#45;&gt;n_4_33</title>
<path fill="none" stroke="black" d="M387,-503.7C387,-496.41 387,-487.73 387,-479.54"/>
<polygon fill="black" stroke="black" points="390.5,-479.62 387,-469.62 383.5,-479.62 390.5,-479.62"/>
</g>
<!-- g_5_34 -->
<g id="node36" class="node">
<title>g_5_34</title>
<ellipse fill="none" stroke="black" cx="387" cy="-378" rx="27" ry="18"/>
<text text-anchor="middle" x="387" y="-372.95" font-family="Times,serif" font-size="14.00">g</text>
</g>
<!-- n_4_33&#45;&gt;g_5_34 -->
<g id="edge36" class="edge">
<title>n_4_33&#45;&gt;g_5_34</title>
<path fill="none" stroke="black" d="M387,-431.7C387,-424.41 387,-415.73 387,-407.54"/>
<polygon fill="black" stroke="black" points="390.5,-407.62 387,-397.62 383.5,-407.62 390.5,-407.62"/>
</g>
<!-- e_6_35 -->
<g id="node37" class="node">
<title>e_6_35</title>
<ellipse fill="none" stroke="red" cx="387" cy="-306" rx="27" ry="18"/>
<text text-anchor="middle" x="387" y="-300.95" font-family="Times,serif" font-size="14.00">e</text>
</g>
<!-- g_5_34&#45;&gt;e_6_35 -->
<g id="edge37" class="edge">
<title>g_5_34&#45;&gt;e_6_35</title>
<path fill="none" stroke="black" d="M387,-359.7C387,-352.41 387,-343.73 387,-335.54"/>
<polygon fill="black" stroke="black" points="390.5,-335.62 387,-325.62 383.5,-335.62 390.5,-335.62"/>
</g>
<!-- s_7_36 -->
<g id="node38" class="node">
<title>s_7_36</title>
<ellipse fill="none" stroke="red" cx="387" cy="-234" rx="27" ry="18"/>
<text text-anchor="middle" x="387" y="-228.95" font-family="Times,serif" font-size="14.00">s</text>
</g>
<!-- e_6_35&#45;&gt;s_7_36 -->
<g id="edge38" class="edge">
<title>e_6_35&#45;&gt;s_7_36</title>
<path fill="none" stroke="black" d="M387,-287.7C387,-280.41 387,-271.73 387,-263.54"/>
<polygon fill="black" stroke="black" points="390.5,-263.62 387,-253.62 383.5,-263.62 390.5,-263.62"/>
</g>
<!-- a_2_38 -->
<g id="node40" class="node">
<title>a_2_38</title>
<ellipse fill="none" stroke="black" cx="459" cy="-594" rx="27" ry="18"/>
<text text-anchor="middle" x="459" y="-588.95" font-family="Times,serif" font-size="14.00">a</text>
</g>
<!-- w_1_37&#45;&gt;a_2_38 -->
<g id="edge39" class="edge">
<title>w_1_37&#45;&gt;a_2_38</title>
<path fill="none" stroke="black" d="M459,-647.7C459,-640.41 459,-631.73 459,-623.54"/>
<polygon fill="black" stroke="black" points="462.5,-623.62 459,-613.62 455.5,-623.62 462.5,-623.62"/>
</g>
<!-- f_3_39 -->
<g id="node41" class="node">
<title>f_3_39</title>
<ellipse fill="none" stroke="black" cx="459" cy="-522" rx="27" ry="18"/>
<text text-anchor="middle" x="459" y="-516.95" font-family="Times,serif" font-size="14.00">f</text>
</g>
<!-- a_2_38&#45;&gt;f_3_39 -->
<g id="edge40" class="edge">
<title>a_2_38&#45;&gt;f_3_39</title>
<path fill="none" stroke="black" d="M459,-575.7C459,-568.41 459,-559.73 459,-551.54"/>
<polygon fill="black" stroke="black" points="462.5,-551.62 459,-541.62 455.5,-551.62 462.5,-551.62"/>
</g>
<!-- t_3_42 -->
<g id="node44" class="node">
<title>t_3_42</title>
<ellipse fill="none" stroke="black" cx="531" cy="-522" rx="27" ry="18"/>
<text text-anchor="middle" x="531" y="-516.95" font-family="Times,serif" font-size="14.00">t</text>
</g>
<!-- a_2_38&#45;&gt;t_3_42 -->
<g id="edge41" class="edge">
<title>a_2_38&#45;&gt;t_3_42</title>
<path fill="none" stroke="black" d="M473.92,-578.5C483.77,-568.92 496.86,-556.19 508.03,-545.34"/>
<polygon fill="black" stroke="black" points="510.29,-548.02 515.02,-538.54 505.41,-543 510.29,-548.02"/>
</g>
<!-- e_4_40 -->
<g id="node42" class="node">
<title>e_4_40</title>
<ellipse fill="none" stroke="black" cx="459" cy="-450" rx="27" ry="18"/>
<text text-anchor="middle" x="459" y="-444.95" font-family="Times,serif" font-size="14.00">e</text>
</g>
<!-- f_3_39&#45;&gt;e_4_40 -->
<g id="edge42" class="edge">
<title>f_3_39&#45;&gt;e_4_40</title>
<path fill="none" stroke="black" d="M459,-503.7C459,-496.41 459,-487.73 459,-479.54"/>
<polygon fill="black" stroke="black" points="462.5,-479.62 459,-469.62 455.5,-479.62 462.5,-479.62"/>
</g>
<!-- r_5_41 -->
<g id="node43" class="node">
<title>r_5_41</title>
<ellipse fill="none" stroke="red" cx="459" cy="-378" rx="27" ry="18"/>
<text text-anchor="middle" x="459" y="-372.95" font-family="Times,serif" font-size="14.00">r</text>
</g>
<!-- e_4_40&#45;&gt;r_5_41 -->
<g id="edge43" class="edge">
<title>e_4_40&#45;&gt;r_5_41</title>
<path fill="none" stroke="black" d="M459,-431.7C459,-424.41 459,-415.73 459,-407.54"/>
<polygon fill="black" stroke="black" points="462.5,-407.62 459,-397.62 455.5,-407.62 462.5,-407.62"/>
</g>
<!-- e_4_43 -->
<g id="node45" class="node">
<title>e_4_43</title>
<ellipse fill="none" stroke="black" cx="531" cy="-450" rx="27" ry="18"/>
<text text-anchor="middle" x="531" y="-444.95" font-family="Times,serif" font-size="14.00">e</text>
</g>
<!-- t_3_42&#45;&gt;e_4_43 -->
<g id="edge44" class="edge">
<title>t_3_42&#45;&gt;e_4_43</title>
<path fill="none" stroke="black" d="M531,-503.7C531,-496.41 531,-487.73 531,-479.54"/>
<polygon fill="black" stroke="black" points="534.5,-479.62 531,-469.62 527.5,-479.62 534.5,-479.62"/>
</g>
<!-- r_5_44 -->
<g id="node46" class="node">
<title>r_5_44</title>
<ellipse fill="none" stroke="red" cx="531" cy="-378" rx="27" ry="18"/>
<text text-anchor="middle" x="531" y="-372.95" font-family="Times,serif" font-size="14.00">r</text>
</g>
<!-- e_4_43&#45;&gt;r_5_44 -->
<g id="edge45" class="edge">
<title>e_4_43&#45;&gt;r_5_44</title>
<path fill="none" stroke="black" d="M531,-431.7C531,-424.41 531,-415.73 531,-407.54"/>
<polygon fill="black" stroke="black" points="534.5,-407.62 531,-397.62 527.5,-407.62 534.5,-407.62"/>
</g>
<!-- m_6_45 -->
<g id="node47" class="node">
<title>m_6_45</title>
<ellipse fill="none" stroke="black" cx="531" cy="-306" rx="27" ry="18"/>
<text text-anchor="middle" x="531" y="-300.95" font-family="Times,serif" font-size="14.00">m</text>
</g>
<!-- r_5_44&#45;&gt;m_6_45 -->
<g id="edge46" class="edge">
<title>r_5_44&#45;&gt;m_6_45</title>
<path fill="none" stroke="black" d="M531,-359.7C531,-352.41 531,-343.73 531,-335.54"/>
<polygon fill="black" stroke="black" points="534.5,-335.62 531,-325.62 527.5,-335.62 534.5,-335.62"/>
</g>
<!-- e_7_46 -->
<g id="node48" class="node">
<title>e_7_46</title>
<ellipse fill="none" stroke="black" cx="531" cy="-234" rx="27" ry="18"/>
<text text-anchor="middle" x="531" y="-228.95" font-family="Times,serif" font-size="14.00">e</text>
</g>
<!-- m_6_45&#45;&gt;e_7_46 -->
<g id="edge47" class="edge">
<title>m_6_45&#45;&gt;e_7_46</title>
<path fill="none" stroke="black" d="M531,-287.7C531,-280.41 531,-271.73 531,-263.54"/>
<polygon fill="black" stroke="black" points="534.5,-263.62 531,-253.62 527.5,-263.62 534.5,-263.62"/>
</g>
<!-- l_8_47 -->
<g id="node49" class="node">
<title>l_8_47</title>
<ellipse fill="none" stroke="black" cx="531" cy="-162" rx="27" ry="18"/>
<text text-anchor="middle" x="531" y="-156.95" font-family="Times,serif" font-size="14.00">l</text>
</g>
<!-- e_7_46&#45;&gt;l_8_47 -->
<g id="edge48" class="edge">
<title>e_7_46&#45;&gt;l_8_47</title>
<path fill="none" stroke="black" d="M531,-215.7C531,-208.41 531,-199.73 531,-191.54"/>
<polygon fill="black" stroke="black" points="534.5,-191.62 531,-181.62 527.5,-191.62 534.5,-191.62"/>
</g>
<!-- o_9_48 -->
<g id="node50" class="node">
<title>o_9_48</title>
<ellipse fill="none" stroke="black" cx="531" cy="-90" rx="27" ry="18"/>
<text text-anchor="middle" x="531" y="-84.95" font-family="Times,serif" font-size="14.00">o</text>
</g>
<!-- l_8_47&#45;&gt;o_9_48 -->
<g id="edge49" class="edge">
<title>l_8_47&#45;&gt;o_9_48</title>
<path fill="none" stroke="black" d="M531,-143.7C531,-136.41 531,-127.73 531,-119.54"/>
<polygon fill="black" stroke="black" points="534.5,-119.62 531,-109.62 527.5,-119.62 534.5,-119.62"/>
</g>
<!-- n_10_49 -->
<g id="node51" class="node">
<title>n_10_49</title>
<ellipse fill="none" stroke="red" cx="531" cy="-18" rx="27" ry="18"/>
<text text-anchor="middle" x="531" y="-12.95" font-family="Times,serif" font-size="14.00">n</text>
</g>
<!-- o_9_48&#45;&gt;n_10_49 -->
<g id="edge50" class="edge">
<title>o_9_48&#45;&gt;n_10_49</title>
<path fill="none" stroke="black" d="M531,-71.7C531,-64.41 531,-55.73 531,-47.54"/>
<polygon fill="black" stroke="black" points="534.5,-47.62 531,-37.62 527.5,-47.62 534.5,-47.62"/>
</g>
</g>
</svg>
